<?xml version="1.0" encoding="UTF-8" standalone="no"?>
<svg
   xmlns:dc="http://purl.org/dc/elements/1.1/"
   xmlns:cc="http://creativecommons.org/ns#"
   xmlns:rdf="http://www.w3.org/1999/02/22-rdf-syntax-ns#"
   xmlns:svg="http://www.w3.org/2000/svg"
   xmlns="http://www.w3.org/2000/svg"
   xmlns:sodipodi="http://sodipodi.sourceforge.net/DTD/sodipodi-0.dtd"
   xmlns:inkscape="http://www.inkscape.org/namespaces/inkscape"
   version="1.1"
   id="svg2"
   xml:space="preserve"
   width="816"
   height="420"
   viewBox="0 0 816 420"
   sodipodi:docname="Logo Vampiro_branco.ai"><metadata
     id="metadata8"><rdf:RDF><cc:Work
         rdf:about=""><dc:format>image/svg+xml</dc:format><dc:type
           rdf:resource="http://purl.org/dc/dcmitype/StillImage" /></cc:Work></rdf:RDF></metadata><defs
     id="defs6"><clipPath
       clipPathUnits="userSpaceOnUse"
       id="clipPath18"><path
         d="M 0,315 H 612 V 0 H 0 Z"
         id="path16" /></clipPath></defs><sodipodi:namedview
     pagecolor="#ffffff"
     bordercolor="#666666"
     borderopacity="1"
     objecttolerance="10"
     gridtolerance="10"
     guidetolerance="10"
     inkscape:pageopacity="0"
     inkscape:pageshadow="2"
     inkscape:window-width="640"
     inkscape:window-height="480"
     id="namedview4" /><g
     id="g10"
     inkscape:groupmode="layer"
     inkscape:label="Logo Vampiro_branco"
     transform="matrix(1.3333333,0,0,-1.3333333,0,420)"><g
       id="g12"><g
         id="g14"
         clip-path="url(#clipPath18)"><g
           id="g20"
           transform="translate(307.0664,63.3696)"><path
             d="M 0,0 V 0.963 C 0,2.626 -0.127,3.438 1.057,4.352 0.078,4.719 -0.615,5.612 -1.052,6.653 -1.508,5.578 -2.166,4.734 -3.156,4.352 -1.973,3.438 -2.1,2.626 -2.1,0.963 v -0.971 c -1.965,0.766 -3.802,3.528 -3.802,6.247 0,3.195 1.868,5.791 4.839,5.791 2.974,0 4.846,-2.596 4.846,-5.791 C 3.783,3.531 1.953,0.781 0,0 M 7.864,0.248 C 7.129,-0.859 6.433,-1.187 4.913,-1.187 H 4.897 4.839 1.041 c 2.363,1.102 4.51,3.871 4.997,7.437 0.627,4.607 -2.533,8.661 -7.101,8.661 -4.569,0 -7.725,-4.054 -7.098,-8.661 0.487,-3.566 2.63,-6.335 4.994,-7.437 h -3.772 -0.062 -0.016 c -1.516,0 -2.208,0.328 -2.947,1.435 -0.897,-0.538 -1.841,-2.778 -0.808,-3.997 0.487,0.67 2.499,1.095 3.755,1.095 h 0.078 c 1.338,0 2.584,-0.061 3.377,-0.549 1.713,-1.048 1.837,-3.121 0.847,-4.665 0.344,-3.141 0.337,-6.158 0.143,-8.513 -0.186,-2.364 -0.53,-5.609 0,-9.357 0.538,-3.756 1.52,-7.075 1.52,-7.075 0,0 0.987,3.319 1.517,7.075 0.537,3.748 0.193,6.993 0,9.357 -0.187,2.355 -0.194,5.372 0.146,8.513 -0.99,1.544 -0.862,3.617 0.848,4.665 0.792,0.488 2.042,0.549 3.38,0.549 h 0.074 c 1.257,0 3.269,-0.425 3.756,-1.095 0.963,1.181 0.097,3.459 -0.805,3.997"
             style="fill:#ffffff;fill-opacity:1;fill-rule:nonzero;stroke:none"
             id="path22" /></g><g
           id="g24"
           transform="translate(526.8955,141.7769)"><path
             d="M 0,0 -6.023,2.754 H -30.086 L -35.42,-1.161 H 74.475 V 2.754 H 15.19 Z m -418.21,-1.157 3.182,2.494 8.921,-0.916 7.666,2.336 h -114.08 l -3.37,-1.957 v -1.957 z m 29.872,3.914 h 338.181 c 3.119,-1.384 6.48,-2.974 8.428,-3.914 h -341.998 z"
             style="fill:#ffffff;fill-opacity:1;fill-rule:nonzero;stroke:none"
             id="path26" /></g><g
           id="g28"
           transform="translate(601.3672,265.2017)"><path
             d="M 0,0 V 0.526 L -4.215,3.915 H -17.183 L -18.027,0 Z M -28.098,0 H -590.36 v 3.915 h 25.388 l 1.73,-1.664 h 13.686 c 3.421,0 10.528,-2.251 10.528,-2.251 0,0 0.25,2.414 -0.009,3.915 h 512.789 z"
             style="fill:#ffffff;fill-opacity:1;fill-rule:nonzero;stroke:none"
             id="path30" /></g><g
           id="g32"
           transform="translate(482.9336,175.5864)"><path
             d="m 0,0 c -5.773,6.061 -13.498,15.604 -23.16,28.628 6.145,1.553 11.181,4.42 15.112,8.598 3.932,4.177 5.896,8.766 5.896,13.762 0,6.799 -2.868,12.287 -8.598,16.461 -4.589,3.359 -10.98,5.043 -19.166,5.043 -1.311,0 -3.24,-0.047 -5.776,-0.127 -2.541,-0.085 -4.466,-0.123 -5.777,-0.123 h -18.794 c 2.783,-1.476 4.547,-3.89 5.281,-7.249 0.327,-1.475 0.492,-4.589 0.492,-9.335 V 3.439 c 0,-4.75 -0.165,-7.863 -0.492,-9.338 -0.734,-3.356 -2.498,-5.773 -5.281,-7.245 h 24.571 c -2.787,1.472 -4.547,3.889 -5.286,7.245 -0.326,1.475 -0.491,4.588 -0.491,9.338 v 59.836 c 3.363,0.654 6.349,0.98 8.97,0.98 4.75,0 8.582,-1.329 11.487,-3.993 2.909,-2.663 4.366,-6.122 4.366,-10.377 0,-4.035 -1.218,-7.44 -3.605,-10.238 l 1.365,-3.667 -4.635,0.719 c -3.905,-2.752 -7.959,-4.212 -14.75,-5.373 7.371,-12.448 15.154,-23.463 23.343,-33.044 4.259,-5 7.657,-8.275 10.2,-9.831 2.533,-1.557 5.731,-2.333 9.578,-2.333 1.641,0 5.492,0.246 11.552,0.738 C 11.237,-10.442 5.772,-6.061 0,0"
             style="fill:#ffffff;fill-opacity:1;fill-rule:nonzero;stroke:none"
             id="path34" /></g><g
           id="g36"
           transform="translate(76.2358,247.8286)"><path
             d="m 0,0 c 3.109,-1.396 4.67,-3.851 4.67,-7.372 0,-2.866 -1.315,-7.74 -3.936,-14.623 l -1.065,-2.806 3.294,-4.135 -5.231,-0.945 -15.303,-40.151 -21.253,57.991 c -1.965,5.323 -2.948,8.886 -2.948,10.692 0,0.488 0.038,0.937 0.123,1.349 h -18.924 c 2.459,-2.21 4.158,-4.258 5.103,-6.142 0.938,-1.887 3.01,-7.171 6.199,-15.853 l 17.572,-47.422 c 2.045,-5.488 3.809,-9.132 5.281,-10.934 1.721,-2.048 5.53,-4.997 11.426,-8.847 L 19.655,0 Z"
             style="fill:#ffffff;fill-opacity:1;fill-rule:nonzero;stroke:none"
             id="path38" /></g><g
           id="g40"
           transform="translate(272.9868,162.5825)"><path
             d="m 0,0 h 24.978 c -2.368,1.875 -3.94,3.751 -4.712,5.63 -0.781,1.876 -1.495,5.1 -2.145,9.674 l -7.959,57.057 c -0.246,1.791 -0.366,3.39 -0.366,4.777 0,3.997 1.346,6.649 4.04,7.956 H -8.57 c 0,-2.045 -0.815,-5.142 -2.449,-9.305 l -20.934,-53.633 -18.836,44.252 -6.41,0.277 3.163,3.735 -0.115,3.89 -2.66,6.253 c -0.819,1.875 -1.226,3.385 -1.226,4.531 h -22.649 c 3.021,-2.126 4.532,-4.489 4.532,-7.099 0,-0.822 -0.246,-3.02 -0.738,-6.614 L -84.359,17.018 C -85.424,9.097 -87.749,3.428 -91.343,0 h 21.188 c -1.964,1.307 -3.309,2.567 -4.043,3.797 -0.734,1.223 -1.099,2.936 -1.099,5.142 0,1.142 0.2,3.26 0.611,6.365 l 7.59,57.057 25.346,-59.87 c 1.469,-3.517 2.833,-6.107 4.102,-7.779 1.264,-1.672 3.443,-3.816 6.548,-6.426 L -2.079,72.361 4.777,17.018 C 5.185,13.751 5.384,11.426 5.384,10.039 5.384,5.062 3.59,1.71 0,0"
             style="fill:#ffffff;fill-opacity:1;fill-rule:nonzero;stroke:none"
             id="path42" /></g><g
           id="g44"
           transform="translate(401.0205,169.8062)"><path
             d="m 0,0 c -0.312,1.391 -0.465,3.428 -0.48,7.732 l -1.53,0.07 -0.404,2.286 -1.853,0.504 3.779,3.916 v 46.83 c 0,4.739 0.161,7.841 0.488,9.308 0.734,3.348 2.486,5.754 5.266,7.226 h -24.487 c 2.776,-1.472 4.528,-3.878 5.262,-7.226 0.331,-1.467 0.488,-4.569 0.488,-9.308 V 9.304 c 0,-4.731 -0.157,-7.836 -0.488,-9.304 -0.734,-3.348 -2.486,-5.753 -5.262,-7.222 H 5.266 C 2.486,-5.753 0.734,-3.348 0,0"
             style="fill:#ffffff;fill-opacity:1;fill-rule:nonzero;stroke:none"
             id="path46" /></g><g
           id="g48"
           transform="translate(140.9687,202.9849)"><path
             d="M 0,0 -13.144,33.909 -26.415,0 Z m 3.316,-8.352 h -32.802 l -7.371,-19.785 c -0.984,-2.621 -1.476,-4.83 -1.476,-6.633 0,-2.048 1.557,-3.974 4.669,-5.772 H -57.5 c 2.949,1.878 5.12,3.846 6.511,5.895 1.391,2.048 3.232,5.899 5.531,11.549 l 22.852,57.007 c 0.98,2.456 1.472,4.381 1.472,5.777 0,2.128 -1.311,3.846 -3.928,5.157 h 20.638 l 27.276,-67.941 c 2.129,-5.242 4.012,-9.028 5.653,-11.365 1.638,-2.336 3.932,-4.362 6.88,-6.079 H 8.478 c 3.113,1.878 4.666,3.6 4.666,5.157 0,0.98 -0.734,3.401 -2.21,7.248 z"
             style="fill:#ffffff;fill-opacity:1;fill-rule:nonzero;stroke:none"
             id="path50" /></g><g
           id="g52"
           transform="translate(328.375,237.8774)"><path
             d="m 0,0 v -60.205 c 0,-4.258 0.469,-7.452 1.415,-9.581 0.938,-2.129 2.721,-4.012 5.342,-5.65 h -25.554 c 2.786,1.472 4.547,3.886 5.284,7.245 0.327,1.476 0.492,4.589 0.492,9.343 v 52.215 c 0,4.75 -0.165,7.859 -0.492,9.335 -0.737,3.359 -2.498,5.776 -5.284,7.252 h 12.41 c 0.734,0 2.332,0.039 4.792,0.123 h 9.704 4.178 c 6.63,0 12.061,-0.984 16.276,-2.952 4.22,-1.963 7.58,-4.73 10.078,-8.293 2.494,-3.56 3.743,-7.395 3.743,-11.484 0,-6.722 -2.802,-12.472 -8.413,-17.268 -5.612,-4.788 -12.349,-7.183 -20.212,-7.183 -3.359,0 -6.468,0.615 -9.335,1.841 7.045,0.903 12.448,2.867 16.219,5.9 4.831,3.931 7.248,8.681 7.248,14.25 0,4.996 -1.68,8.924 -5.038,11.795 C 19.493,-0.45 14.908,0.984 9.098,0.984 6.223,0.984 3.194,0.653 0,0"
             style="fill:#ffffff;fill-opacity:1;fill-rule:nonzero;stroke:none"
             id="path54" /></g><g
           id="g56"
           transform="translate(580.5293,203.6509)"><path
             d="m 0,0 c 0,10.053 -2.95,18.635 -8.843,25.747 -6.222,7.518 -14.371,11.278 -24.44,11.278 -9.5,0 -17.299,-3.128 -23.394,-9.379 -6.103,-6.253 -9.15,-14.405 -9.15,-24.458 0,-10.625 3.478,-19.779 10.437,-27.461 5.814,-6.458 13.388,-9.685 22.722,-9.685 9.657,0 17.52,3.145 23.577,9.438 C -3.033,-18.225 0,-10.053 0,0 m 14.734,2.147 c 0,-12.691 -4.646,-23.416 -13.939,-32.176 -9.293,-8.762 -20.612,-13.142 -33.955,-13.142 -13.185,0 -24.358,4.299 -33.527,12.896 -9.172,8.597 -13.755,19.076 -13.755,31.441 0,12.852 4.683,23.618 14.063,32.297 6.508,6.027 14.113,9.961 22.816,11.803 l 1.309,-5.962 4.191,6.832 c 2.147,0.23 4.354,0.345 6.623,0.345 13.263,0 24.275,-4.257 33.035,-12.772 C 5.689,29.78 8.902,24.991 11.236,19.34 13.567,13.692 14.734,7.96 14.734,2.147"
             style="fill:#ffffff;fill-opacity:1;fill-rule:nonzero;stroke:none"
             id="path58" /></g><g
           id="g60"
           transform="translate(407.2617,108.9561)"><path
             d="M 0,0 C 0.324,0.13 0.637,0.269 0.918,0.443 1.35,0.696 1.722,0.985 2.03,1.313 2.343,1.638 2.58,2.002 2.75,2.394 2.916,2.786 3.003,3.197 3.003,3.632 3.003,4.238 2.881,4.795 2.631,5.306 2.386,5.82 2.01,6.263 1.512,6.635 1.013,7.011 0.392,7.304 -0.356,7.51 -1.107,7.715 -1.982,7.822 -2.976,7.822 H -8.752 V -7.565 h 3.771 v 6.972 1.325 5.599 h 1.531 c 0.368,0 0.704,-0.068 1.012,-0.202 0.305,-0.135 0.571,-0.329 0.796,-0.582 0.222,-0.245 0.4,-0.538 0.523,-0.878 0.126,-0.34 0.185,-0.709 0.185,-1.112 0,-0.443 -0.079,-0.835 -0.245,-1.183 C -1.345,2.022 -1.574,1.729 -1.863,1.484 -2.145,1.242 -2.492,1.06 -2.884,0.93 -3.276,0.799 -3.699,0.732 -4.162,0.732 l -0.301,0.004 5.049,-8.218 h 4.099 z"
             style="fill:#ffffff;fill-opacity:1;fill-rule:nonzero;stroke:none"
             id="path62" /></g><g
           id="g64"
           transform="translate(304.085,115.0474)"><path
             d="M 0,0 C 0.21,0.198 0.483,0.36 0.823,0.491 1.159,0.625 1.575,0.688 2.065,0.688 2.592,0.688 3.039,0.613 3.419,0.463 3.79,0.32 4.111,0.119 4.376,-0.139 4.642,-0.388 4.866,-0.681 5.049,-1.009 5.23,-1.341 5.385,-1.689 5.523,-2.058 H 7.901 C 7.728,-1.476 7.474,-0.934 7.149,-0.427 6.821,0.075 6.418,0.514 5.938,0.886 5.46,1.258 4.906,1.551 4.281,1.769 3.652,1.986 2.948,2.093 2.172,2.093 1.234,2.093 0.4,1.986 -0.333,1.769 -1.068,1.551 -1.689,1.25 -2.2,0.87 -2.706,0.487 -3.094,0.04 -3.359,-0.483 c -0.269,-0.522 -0.4,-1.092 -0.4,-1.705 0,-0.562 0.115,-1.061 0.348,-1.492 0.238,-0.431 0.546,-0.819 0.93,-1.167 0.384,-0.344 0.827,-0.657 1.322,-0.934 0.491,-0.277 0.993,-0.546 1.503,-0.799 0.51,-0.253 1.013,-0.51 1.512,-0.76 0.49,-0.257 0.93,-0.526 1.313,-0.819 0.388,-0.293 0.701,-0.613 0.93,-0.965 0.233,-0.356 0.356,-0.764 0.356,-1.227 0,-0.356 -0.079,-0.66 -0.229,-0.91 -0.155,-0.249 -0.348,-0.447 -0.598,-0.597 -0.249,-0.154 -0.53,-0.261 -0.846,-0.332 -0.313,-0.068 -0.63,-0.103 -0.954,-0.103 -0.483,0 -0.91,0.071 -1.278,0.21 -0.364,0.142 -0.684,0.335 -0.949,0.581 -0.269,0.245 -0.487,0.534 -0.661,0.866 -0.17,0.337 -0.305,0.697 -0.4,1.077 h -2.611 c 0.107,-0.626 0.3,-1.203 0.585,-1.729 0.289,-0.526 0.673,-0.978 1.155,-1.361 0.487,-0.38 1.081,-0.681 1.769,-0.894 0.693,-0.222 1.5,-0.329 2.421,-0.329 0.982,0 1.844,0.115 2.604,0.344 0.748,0.226 1.381,0.534 1.888,0.938 0.505,0.4 0.889,0.87 1.151,1.404 0.257,0.539 0.388,1.121 0.388,1.746 0,0.534 -0.123,1.012 -0.361,1.44 C 7.288,-7.577 6.964,-7.189 6.568,-6.841 6.164,-6.493 5.713,-6.168 5.203,-5.884 4.7,-5.599 4.179,-5.318 3.648,-5.053 3.118,-4.784 2.6,-4.522 2.097,-4.257 1.595,-3.992 1.14,-3.719 0.74,-3.435 c -0.4,0.281 -0.72,0.594 -0.962,0.926 -0.241,0.341 -0.36,0.709 -0.36,1.12 0,0.242 0.044,0.479 0.131,0.724 C -0.356,-0.419 -0.206,-0.198 0,0"
             style="fill:#ffffff;fill-opacity:1;fill-rule:nonzero;stroke:none"
             id="path66" /></g><g
           id="g68"
           transform="translate(271.8892,117.251)"><path
             d="m 0,0 -7.51,-15.724 h 2.568 L 0.142,-5.112 4.981,-15.724 H 8.835 L 1.63,0 Z"
             style="fill:#ffffff;fill-opacity:1;fill-rule:nonzero;stroke:none"
             id="path70" /></g><g
           id="g72"
           transform="translate(174.8721,117.251)"><path
             d="m 0,0 -7.51,-15.724 h 2.568 L 0.143,-5.112 4.981,-15.724 H 8.835 L 1.63,0 Z"
             style="fill:#ffffff;fill-opacity:1;fill-rule:nonzero;stroke:none"
             id="path74" /></g><g
           id="g76"
           transform="translate(241.3999,116.9224)"><path
             d="M 0,0 -5.25,-10.517 -10.568,0 h -3.676 v -15.396 h 2.39 v 10.149 l 5.195,-10.149 h 1.456 l 5.029,10.039 v -10.039 h 3.77 L 3.596,0 Z"
             style="fill:#ffffff;fill-opacity:1;fill-rule:nonzero;stroke:none"
             id="path78" /></g><g
           id="g80"
           transform="translate(435.3145,117.251)"><path
             d="m 0,0 -7.514,-15.724 h 2.577 l 5.08,10.612 4.838,-10.612 H 8.839 L 1.626,0 Z"
             style="fill:#ffffff;fill-opacity:1;fill-rule:nonzero;stroke:none"
             id="path82" /></g><g
           id="g84"
           transform="translate(371.2881,117.251)"><path
             d="m 0,0 -7.514,-15.724 h 2.577 l 5.08,10.612 4.838,-10.612 H 8.839 L 1.626,0 Z"
             style="fill:#ffffff;fill-opacity:1;fill-rule:nonzero;stroke:none"
             id="path86" /></g><g
           id="g88"
           transform="translate(344.8291,113.1978)"><path
             d="M 0,0 C -1.673,1.521 -3.732,2.28 -6.187,2.28 -7.04,2.28 -7.759,2.119 -8.35,1.799 -8.945,1.476 -9.394,1.012 -9.694,0.406 -10,-0.203 -10.216,-0.856 -10.348,-1.559 c -0.131,-0.701 -0.197,-1.513 -0.197,-2.434 0,-0.922 0.066,-1.733 0.197,-2.435 0.132,-0.703 0.348,-1.356 0.654,-1.962 0.3,-0.609 0.749,-1.072 1.344,-1.395 0.591,-0.321 1.31,-0.481 2.163,-0.481 2.087,0 4.011,0.481 5.766,1.447 v -1.623 c -1.755,-0.966 -3.679,-1.449 -5.766,-1.449 -2.592,0 -4.601,0.721 -6.027,2.162 -1.426,1.439 -2.139,3.352 -2.139,5.736 0,2.384 0.713,4.296 2.139,5.736 1.426,1.441 3.435,2.161 6.027,2.161 2.366,0 4.429,-0.674 6.187,-2.018 z"
             style="fill:#ffffff;fill-opacity:1;fill-rule:nonzero;stroke:none"
             id="path90" /></g><g
           id="g92"
           transform="translate(273.4238,120.939)"><path
             d="m 0,0 c 0.243,0.031 0.51,0.056 0.802,0.077 0.292,0.02 0.587,0.031 0.884,0.031 0.287,0 0.562,-0.011 0.827,-0.031 C 2.777,0.056 3.003,0.031 3.191,0 L 0.761,-1.962 C 0.562,-2.004 0.365,-2.03 0.166,-2.04 c -0.199,-0.01 -0.391,-0.015 -0.579,-0.015 -0.408,0 -0.81,0.031 -1.206,0.093 z"
             style="fill:#ffffff;fill-opacity:1;fill-rule:nonzero;stroke:none"
             id="path94" /></g></g></g></g></svg>
